<?xml version="1.0" standalone="no"?>
<!DOCTYPE svg PUBLIC "-//W3C//DTD SVG 20010904//EN"
 "http://www.w3.org/TR/2001/REC-SVG-20010904/DTD/svg10.dtd">
<svg version="1.0" xmlns="http://www.w3.org/2000/svg"
 width="1024.000000pt" height="1024.000000pt" viewBox="0 0 1024.000000 1024.000000"
 preserveAspectRatio="xMidYMid meet">
<metadata>
Created by potrace 1.14, written by Peter Selinger 2001-2017
</metadata>
<g transform="translate(0.000000,1024.000000) scale(0.100000,-0.100000)"
fill="#000000" stroke="none">
<path d="M4987 9455 c-26 -7 -51 -13 -55 -14 -4 -1 -30 -13 -59 -28 -106 -51
-194 -167 -247 -323 -35 -103 -149 -431 -177 -510 -13 -36 -27 -66 -31 -68 -5
-2 -8 -10 -8 -18 0 -21 -140 -354 -213 -509 -127 -267 -233 -468 -379 -718
-54 -93 -98 -172 -98 -177 0 -4 -4 -10 -8 -12 -4 -1 -30 -41 -57 -88 -27 -47
-61 -103 -76 -125 -15 -22 -84 -127 -153 -233 -69 -105 -133 -200 -141 -210
-8 -9 -39 -51 -69 -92 -31 -41 -65 -87 -76 -102 -12 -15 -33 -43 -48 -62 -15
-20 -59 -77 -98 -128 -97 -128 -168 -231 -258 -378 -42 -69 -81 -132 -86 -140
-5 -8 -22 -40 -37 -70 -15 -30 -31 -57 -34 -60 -8 -6 -177 -348 -196 -395 -6
-17 -23 -56 -37 -89 -15 -32 -28 -68 -31 -80 -2 -11 -16 -52 -30 -89 -23 -64
-79 -262 -89 -317 -2 -14 -11 -63 -20 -110 -8 -47 -18 -105 -21 -130 -3 -25
-9 -76 -14 -115 -9 -69 -8 -541 2 -580 2 -11 8 -56 12 -100 21 -240 125 -612
239 -858 20 -42 36 -79 36 -82 0 -2 31 -59 70 -126 38 -68 70 -126 70 -130 0
-4 3 -9 8 -11 8 -4 52 -65 52 -73 0 -3 4 -11 10 -18 5 -7 31 -41 58 -77 145
-197 375 -438 551 -580 24 -19 58 -47 75 -61 111 -91 353 -240 527 -323 180
-86 439 -176 579 -202 14 -3 57 -11 95 -19 94 -19 130 -25 184 -30 25 -3 80
-8 121 -13 94 -9 491 -9 585 1 39 4 95 9 125 12 63 6 297 54 412 85 178 47
469 171 641 274 43 25 82 46 87 46 5 0 10 4 12 8 2 4 39 32 83 61 69 46 149
106 234 176 124 102 341 320 436 440 22 28 44 55 50 62 5 7 15 19 22 27 35 41
149 217 210 322 60 105 183 360 183 381 0 4 13 40 29 78 28 71 89 287 107 385
2 14 11 59 19 100 8 41 17 107 20 145 4 39 10 97 15 130 8 66 6 535 -3 575 -3
14 -8 48 -11 75 -6 55 -14 112 -19 135 -2 8 -7 35 -11 60 -10 63 -12 73 -18
90 -3 8 -16 56 -28 105 -25 96 -82 277 -107 335 -8 19 -19 44 -23 55 -96 228
-232 495 -363 710 -63 104 -236 356 -257 375 -3 3 -23 30 -45 60 -22 30 -42
57 -45 60 -3 3 -28 34 -55 70 -28 36 -52 67 -55 70 -3 3 -35 46 -70 95 -35 50
-68 92 -72 93 -4 2 -8 8 -8 14 0 5 -21 39 -47 76 -50 70 -209 312 -243 372
-11 19 -29 49 -39 65 -57 92 -194 329 -263 455 -44 80 -92 165 -106 190 -15
25 -27 47 -28 50 0 3 -45 95 -98 205 -54 110 -107 222 -118 249 -10 28 -30 73
-43 100 -71 155 -161 392 -257 681 -39 116 -85 242 -102 280 -56 122 -165 210
-298 241 -72 17 -213 17 -281 -1z m-1401 -5442 c56 -19 118 -73 143 -126 23
-49 30 -93 36 -218 2 -50 7 -99 10 -109 3 -10 8 -36 10 -59 8 -82 75 -277 127
-369 28 -52 122 -192 148 -222 94 -109 194 -202 295 -272 160 -111 359 -195
505 -213 23 -3 46 -8 50 -10 5 -3 54 -7 111 -10 183 -9 202 -14 276 -72 58
-46 87 -110 90 -200 2 -62 -2 -80 -27 -131 -49 -96 -152 -152 -268 -146 -104
6 -219 15 -243 19 -13 2 -42 6 -64 10 -142 20 -327 81 -490 161 -199 98 -354
210 -515 374 -117 119 -125 127 -208 240 -184 250 -304 547 -337 835 -36 314
-20 397 93 487 57 45 173 59 258 31z"/>
</g>
</svg>
